
<svg xmlns="http://www.w3.org/2000/svg" xmlns:xlink="http://www.w3.org/1999/xlink" xml:lang="en" id="8cefd8bf80e9474d954dff9b24f7f7f5-0" class="displacy" width="1870" height="397.0" direction="ltr" style="max-width: none; height: 397.0px; color: #000000; background: #ffffff; font-family: Arial; direction: ltr">
<text class="displacy-token" fill="currentColor" text-anchor="middle" y="197.0">
    <tspan class="displacy-word" fill="currentColor" x="70">show</tspan>
    <tspan class="displacy-tag" dy="2em" fill="currentColor" x="70">(o(), s())</tspan>
</text>

<text class="displacy-token" fill="currentColor" text-anchor="middle" y="197.0">
    <tspan class="displacy-word" fill="currentColor" x="220">me</tspan>
    <tspan class="displacy-tag" dy="2em" fill="currentColor" x="220">()</tspan>
</text>

<text class="displacy-token" fill="currentColor" text-anchor="middle" y="197.0">
    <tspan class="displacy-word" fill="currentColor" x="370">flights</tspan>
    <tspan class="displacy-tag" dy="2em" fill="currentColor" x="370">(s())</tspan>
</text>

<text class="displacy-token" fill="currentColor" text-anchor="middle" y="197.0">
    <tspan class="displacy-word" fill="currentColor" x="520">from</tspan>
    <tspan class="displacy-tag" dy="2em" fill="currentColor" x="520">⊥</tspan>
</text>

<text class="displacy-token" fill="currentColor" text-anchor="middle" y="197.0">
    <tspan class="displacy-word" fill="currentColor" x="670">Boston</tspan>
    <tspan class="displacy-tag" dy="2em" fill="currentColor" x="670">(mod())</tspan>
</text>

<text class="displacy-token" fill="currentColor" text-anchor="middle" y="197.0">
    <tspan class="displacy-word" fill="currentColor" x="820">to</tspan>
    <tspan class="displacy-tag" dy="2em" fill="currentColor" x="820">⊥</tspan>
</text>

<text class="displacy-token" fill="currentColor" text-anchor="middle" y="197.0">
    <tspan class="displacy-word" fill="currentColor" x="970">anywhere</tspan>
    <tspan class="displacy-tag" dy="2em" fill="currentColor" x="970">()</tspan>
</text>

<text class="displacy-token" fill="currentColor" text-anchor="middle" y="197.0">
    <tspan class="displacy-word" fill="currentColor" x="1120">that</tspan>
    <tspan class="displacy-tag" dy="2em" fill="currentColor" x="1120">⊥</tspan>
</text>

<text class="displacy-token" fill="currentColor" text-anchor="middle" y="197.0">
    <tspan class="displacy-word" fill="currentColor" x="1270">has</tspan>
    <tspan class="displacy-tag" dy="2em" fill="currentColor" x="1270">(s())</tspan>
</text>

<text class="displacy-token" fill="currentColor" text-anchor="middle" y="197.0">
    <tspan class="displacy-word" fill="currentColor" x="1420">flights</tspan>
    <tspan class="displacy-tag" dy="2em" fill="currentColor" x="1420">(s())</tspan>
</text>

<text class="displacy-token" fill="currentColor" text-anchor="middle" y="197.0">
    <tspan class="displacy-word" fill="currentColor" x="1570">to</tspan>
    <tspan class="displacy-tag" dy="2em" fill="currentColor" x="1570">⊥</tspan>
</text>

<text class="displacy-token" fill="currentColor" text-anchor="middle" y="197.0">
    <tspan class="displacy-word" fill="currentColor" x="1720">Dallas</tspan>
    <tspan class="displacy-tag" dy="2em" fill="currentColor" x="1720">(mod())</tspan>
</text>
<!-- Generated by graphviz version 2.38.0 (20140413.2041)
 -->
<!-- Title: %3 Pages: 1 -->
<svg x="7.5" y="257.0" width="101pt" height="41pt"
 viewBox="0.00 0.00 101.00 41.12" xmlns="http://www.w3.org/2000/svg" xmlns:xlink="http://www.w3.org/1999/xlink">
<g id="graph0" class="graph" transform="scale(0.313913 0.313913) rotate(0) translate(4 127)">
<title>%3</title>
<!-- n0 -->
<g id="node1" class="node"><title>n0</title>
<ellipse fill="none" stroke="black" stroke-width="2" cx="178.746" cy="-105" rx="40.8928" ry="18"/>
<text text-anchor="middle" x="178.746" y="-101.3" font-family="Times,serif" font-size="14.00">show&#45;01</text>
</g>
<!-- n1 -->
<g id="node2" class="node"><title>n1</title>
<ellipse fill="none" stroke="black" cx="48.7457" cy="-18" rx="48.9926" ry="18"/>
<text text-anchor="middle" x="48.7457" y="-14.3" font-family="Times,serif" font-size="14.00">imperative</text>
</g>
<!-- n0&#45;&gt;n1 -->
<g id="edge1" class="edge"><title>n0&#45;&gt;n1</title>
<path fill="none" stroke="black" d="M153.602,-90.7025C142.168,-84.4285 128.579,-76.651 116.746,-69 103.148,-60.2082 88.62,-49.6905 76.4978,-40.5749"/>
<polygon fill="black" stroke="black" points="78.612,-37.7856 68.5309,-34.5265 74.3793,-43.3609 78.612,-37.7856"/>
<text text-anchor="middle" x="132.246" y="-57.8" font-family="Times,serif" font-size="14.00">mode</text>
</g>
<!-- n2 -->
<g id="node3" class="node"><title>n2</title>
<ellipse fill="none" stroke="black" cx="142.746" cy="-18" rx="27" ry="18"/>
<text text-anchor="middle" x="142.746" y="-14.3" font-family="Times,serif" font-size="14.00" fill="red">o</text>
</g>
<!-- n0&#45;&gt;n2 -->
<g id="edge2" class="edge"><title>n0&#45;&gt;n2</title>
<path fill="none" stroke="black" d="M166.977,-87.4563C163.328,-81.7961 159.537,-75.2994 156.746,-69 153.532,-61.7474 150.874,-53.5727 148.768,-45.9669"/>
<polygon fill="black" stroke="black" points="152.11,-44.908 146.24,-36.088 145.329,-46.6436 152.11,-44.908"/>
<text text-anchor="middle" x="174.746" y="-57.8" font-family="Times,serif" font-size="14.00">ARG1</text>
</g>
<!-- n3 -->
<g id="node4" class="node"><title>n3</title>
<ellipse fill="none" stroke="black" cx="214.746" cy="-18" rx="27" ry="18"/>
<text text-anchor="middle" x="214.746" y="-14.3" font-family="Times,serif" font-size="14.00" fill="red">s</text>
</g>
<!-- n0&#45;&gt;n3 -->
<g id="edge3" class="edge"><title>n0&#45;&gt;n3</title>
<path fill="none" stroke="black" d="M185.858,-87.2067C190.97,-75.1377 197.958,-58.6384 203.78,-44.8906"/>
<polygon fill="black" stroke="black" points="207.093,-46.0423 207.771,-35.4692 200.648,-43.3123 207.093,-46.0423"/>
<text text-anchor="middle" x="217.746" y="-57.8" font-family="Times,serif" font-size="14.00">ARG2</text>
</g>
<!-- n4 -->
<g id="node5" class="node"><title>n4</title>
<ellipse fill="none" stroke="black" cx="286.746" cy="-18" rx="27" ry="18"/>
<text text-anchor="middle" x="286.746" y="-14.3" font-family="Times,serif" font-size="14.00">you</text>
</g>
<!-- n0&#45;&gt;n4 -->
<g id="edge4" class="edge"><title>n0&#45;&gt;n4</title>
<path fill="none" stroke="black" d="M205.051,-91.12C216.23,-85.0973 229.111,-77.4013 239.746,-69 249.868,-61.0032 259.836,-50.826 267.969,-41.7435"/>
<polygon fill="black" stroke="black" points="270.675,-43.9661 274.602,-34.126 265.396,-39.3693 270.675,-43.9661"/>
<text text-anchor="middle" x="273.746" y="-57.8" font-family="Times,serif" font-size="14.00">ARG0</text>
</g>
</g>
</svg>
<!-- Generated by graphviz version 2.38.0 (20140413.2041)
 -->
<!-- Title: %3 Pages: 1 -->
<svg x="183.0" y="257.0" width="50pt" height="35pt"
 viewBox="0.00 0.00 50.00 35.48" xmlns="http://www.w3.org/2000/svg" xmlns:xlink="http://www.w3.org/1999/xlink">
<g id="graph0" class="graph" transform="scale(0.806452 0.806452) rotate(0) translate(4 40)">
<title>%3</title>
<!-- n0 -->
<g id="node1" class="node"><title>n0</title>
<ellipse fill="none" stroke="black" stroke-width="2" cx="27" cy="-18" rx="27" ry="18"/>
<text text-anchor="middle" x="27" y="-14.3" font-family="Times,serif" font-size="14.00">i</text>
</g>
</g>
</svg>
<!-- Generated by graphviz version 2.38.0 (20140413.2041)
 -->
<!-- Title: %3 Pages: 1 -->
<svg x="328.5" y="257.0" width="59pt" height="101pt"
 viewBox="0.00 0.00 58.98 101.00" xmlns="http://www.w3.org/2000/svg" xmlns:xlink="http://www.w3.org/1999/xlink">
<g id="graph0" class="graph" transform="scale(0.770992 0.770992) rotate(0) translate(4 127)">
<title>%3</title>
<!-- n0 -->
<g id="node1" class="node"><title>n0</title>
<ellipse fill="none" stroke="black" stroke-width="2" cx="32.4971" cy="-105" rx="32.4942" ry="18"/>
<text text-anchor="middle" x="32.4971" y="-101.3" font-family="Times,serif" font-size="14.00">fly&#45;01</text>
</g>
<!-- n1 -->
<g id="node2" class="node"><title>n1</title>
<ellipse fill="none" stroke="black" cx="32.4971" cy="-18" rx="27" ry="18"/>
<text text-anchor="middle" x="32.4971" y="-14.3" font-family="Times,serif" font-size="14.00" fill="red">s</text>
</g>
<!-- n0&#45;&gt;n1 -->
<g id="edge1" class="edge"><title>n0&#45;&gt;n1</title>
<path fill="none" stroke="black" d="M32.4971,-86.799C32.4971,-75.1626 32.4971,-59.5479 32.4971,-46.2368"/>
<polygon fill="black" stroke="black" points="35.9972,-46.1754 32.4971,-36.1754 28.9972,-46.1755 35.9972,-46.1754"/>
<text text-anchor="middle" x="50.4971" y="-57.8" font-family="Times,serif" font-size="14.00">ARG3</text>
</g>
</g>
</svg>
<!-- Generated by graphviz version 2.38.0 (20140413.2041)
 -->
<!-- Title: %3 Pages: 1 -->
<svg x="635.0" y="257.0" width="46pt" height="101pt"
 viewBox="0.00 0.00 46.47 101.00" xmlns="http://www.w3.org/2000/svg" xmlns:xlink="http://www.w3.org/1999/xlink">
<g id="graph0" class="graph" transform="scale(0.463303 0.463303) rotate(0) translate(4 214)">
<title>%3</title>
<!-- n0 -->
<g id="node1" class="node"><title>n0</title>
<ellipse fill="none" stroke="black" stroke-width="2" cx="46.1459" cy="-105" rx="27" ry="18"/>
<text text-anchor="middle" x="46.1459" y="-101.3" font-family="Times,serif" font-size="14.00">city</text>
</g>
<!-- n1 -->
<g id="node2" class="node"><title>n1</title>
<ellipse fill="none" stroke="black" cx="46.1459" cy="-18" rx="46.2923" ry="18"/>
<text text-anchor="middle" x="46.1459" y="-14.3" font-family="Times,serif" font-size="14.00">_NAME_</text>
</g>
<!-- n0&#45;&gt;n1 -->
<g id="edge1" class="edge"><title>n0&#45;&gt;n1</title>
<path fill="none" stroke="black" d="M46.1459,-86.799C46.1459,-75.1626 46.1459,-59.5479 46.1459,-46.2368"/>
<polygon fill="black" stroke="black" points="49.646,-46.1754 46.1459,-36.1754 42.646,-46.1755 49.646,-46.1754"/>
<text text-anchor="middle" x="61.6459" y="-57.8" font-family="Times,serif" font-size="14.00">name</text>
</g>
<!-- n2 -->
<g id="node3" class="node"><title>n2</title>
<ellipse fill="none" stroke="black" cx="46.1459" cy="-192" rx="27" ry="18"/>
<text text-anchor="middle" x="46.1459" y="-188.3" font-family="Times,serif" font-size="14.00" fill="red">mod</text>
</g>
<!-- n2&#45;&gt;n0 -->
<g id="edge2" class="edge"><title>n2&#45;&gt;n0</title>
<path fill="none" stroke="black" d="M46.1459,-173.799C46.1459,-162.163 46.1459,-146.548 46.1459,-133.237"/>
<polygon fill="black" stroke="black" points="49.646,-133.175 46.1459,-123.175 42.646,-133.175 49.646,-133.175"/>
<text text-anchor="middle" x="64.1459" y="-144.8" font-family="Times,serif" font-size="14.00">source</text>
</g>
</g>
</svg>
<!-- Generated by graphviz version 2.38.0 (20140413.2041)
 -->
<!-- Title: %3 Pages: 1 -->
<svg x="933.0" y="257.0" width="50pt" height="23pt"
 viewBox="0.00 0.00 50.00 22.52" xmlns="http://www.w3.org/2000/svg" xmlns:xlink="http://www.w3.org/1999/xlink">
<g id="graph0" class="graph" transform="scale(0.511812 0.511812) rotate(0) translate(4 40)">
<title>%3</title>
<!-- n0 -->
<g id="node1" class="node"><title>n0</title>
<ellipse fill="none" stroke="black" stroke-width="2" cx="44.846" cy="-18" rx="44.6926" ry="18"/>
<text text-anchor="middle" x="44.846" y="-14.3" font-family="Times,serif" font-size="14.00">anywhere</text>
</g>
</g>
</svg>
<!-- Generated by graphviz version 2.38.0 (20140413.2041)
 -->
<!-- Title: %3 Pages: 1 -->
<svg x="1225.0" y="257.0" width="66pt" height="101pt"
 viewBox="0.00 0.00 66.30 101.00" xmlns="http://www.w3.org/2000/svg" xmlns:xlink="http://www.w3.org/1999/xlink">
<g id="graph0" class="graph" transform="scale(0.770992 0.770992) rotate(0) translate(4 127)">
<title>%3</title>
<!-- n0 -->
<g id="node1" class="node"><title>n0</title>
<ellipse fill="none" stroke="black" stroke-width="2" cx="38.9965" cy="-105" rx="38.9931" ry="18"/>
<text text-anchor="middle" x="38.9965" y="-101.3" font-family="Times,serif" font-size="14.00">have&#45;03</text>
</g>
<!-- n1 -->
<g id="node2" class="node"><title>n1</title>
<ellipse fill="none" stroke="black" cx="38.9965" cy="-18" rx="27" ry="18"/>
<text text-anchor="middle" x="38.9965" y="-14.3" font-family="Times,serif" font-size="14.00" fill="red">s</text>
</g>
<!-- n0&#45;&gt;n1 -->
<g id="edge1" class="edge"><title>n0&#45;&gt;n1</title>
<path fill="none" stroke="black" d="M38.9965,-86.799C38.9965,-75.1626 38.9965,-59.5479 38.9965,-46.2368"/>
<polygon fill="black" stroke="black" points="42.4966,-46.1754 38.9965,-36.1754 35.4966,-46.1755 42.4966,-46.1754"/>
<text text-anchor="middle" x="56.9965" y="-57.8" font-family="Times,serif" font-size="14.00">ARG1</text>
</g>
</g>
</svg>
<!-- Generated by graphviz version 2.38.0 (20140413.2041)
 -->
<!-- Title: %3 Pages: 1 -->
<svg x="1373.0" y="257.0" width="70pt" height="101pt"
 viewBox="0.00 0.00 70.31 101.00" xmlns="http://www.w3.org/2000/svg" xmlns:xlink="http://www.w3.org/1999/xlink">
<g id="graph0" class="graph" transform="scale(0.770992 0.770992) rotate(0) translate(4 127)">
<title>%3</title>
<!-- n0 -->
<g id="node1" class="node"><title>n0</title>
<ellipse fill="none" stroke="black" stroke-width="2" cx="41.5963" cy="-105" rx="41.6928" ry="18"/>
<text text-anchor="middle" x="41.5963" y="-101.3" font-family="Times,serif" font-size="14.00">flight&#45;01</text>
</g>
<!-- n1 -->
<g id="node2" class="node"><title>n1</title>
<ellipse fill="none" stroke="black" cx="41.5963" cy="-18" rx="27" ry="18"/>
<text text-anchor="middle" x="41.5963" y="-14.3" font-family="Times,serif" font-size="14.00" fill="red">s</text>
</g>
<!-- n0&#45;&gt;n1 -->
<g id="edge1" class="edge"><title>n0&#45;&gt;n1</title>
<path fill="none" stroke="black" d="M41.5963,-86.799C41.5963,-75.1626 41.5963,-59.5479 41.5963,-46.2368"/>
<polygon fill="black" stroke="black" points="45.0964,-46.1754 41.5963,-36.1754 38.0964,-46.1755 45.0964,-46.1754"/>
<text text-anchor="middle" x="59.5963" y="-57.8" font-family="Times,serif" font-size="14.00">ARG1</text>
</g>
</g>
</svg>
<!-- Generated by graphviz version 2.38.0 (20140413.2041)
 -->
<!-- Title: %3 Pages: 1 -->
<svg x="1685.0" y="257.0" width="46pt" height="101pt"
 viewBox="0.00 0.00 46.47 101.00" xmlns="http://www.w3.org/2000/svg" xmlns:xlink="http://www.w3.org/1999/xlink">
<g id="graph0" class="graph" transform="scale(0.463303 0.463303) rotate(0) translate(4 214)">
<title>%3</title>
<!-- n0 -->
<g id="node1" class="node"><title>n0</title>
<ellipse fill="none" stroke="black" stroke-width="2" cx="46.1459" cy="-105" rx="37.8943" ry="18"/>
<text text-anchor="middle" x="46.1459" y="-101.3" font-family="Times,serif" font-size="14.00">country</text>
</g>
<!-- n1 -->
<g id="node2" class="node"><title>n1</title>
<ellipse fill="none" stroke="black" cx="46.1459" cy="-18" rx="46.2923" ry="18"/>
<text text-anchor="middle" x="46.1459" y="-14.3" font-family="Times,serif" font-size="14.00">_NAME_</text>
</g>
<!-- n0&#45;&gt;n1 -->
<g id="edge1" class="edge"><title>n0&#45;&gt;n1</title>
<path fill="none" stroke="black" d="M46.1459,-86.799C46.1459,-75.1626 46.1459,-59.5479 46.1459,-46.2368"/>
<polygon fill="black" stroke="black" points="49.646,-46.1754 46.1459,-36.1754 42.646,-46.1755 49.646,-46.1754"/>
<text text-anchor="middle" x="61.6459" y="-57.8" font-family="Times,serif" font-size="14.00">name</text>
</g>
<!-- n2 -->
<g id="node3" class="node"><title>n2</title>
<ellipse fill="none" stroke="black" cx="46.1459" cy="-192" rx="27" ry="18"/>
<text text-anchor="middle" x="46.1459" y="-188.3" font-family="Times,serif" font-size="14.00" fill="red">mod</text>
</g>
<!-- n2&#45;&gt;n0 -->
<g id="edge2" class="edge"><title>n2&#45;&gt;n0</title>
<path fill="none" stroke="black" d="M46.1459,-173.799C46.1459,-162.163 46.1459,-146.548 46.1459,-133.237"/>
<polygon fill="black" stroke="black" points="49.646,-133.175 46.1459,-123.175 42.646,-133.175 49.646,-133.175"/>
<text text-anchor="middle" x="64.1459" y="-144.8" font-family="Times,serif" font-size="14.00">source</text>
</g>
</g>
</svg>

<g class="displacy-arrow">
    <path class="displacy-arc" id="arrow-8cefd8bf80e9474d954dff9b24f7f7f5-0-0" stroke-width="2px" d="M82,152.0 82,127.0 211.0,127.0 211.0,152.0" fill="none" stroke="currentColor"/>
    <text dy="1.25em" style="font-size: 0.8em; letter-spacing: 1px">
        <textPath xlink:href="#arrow-8cefd8bf80e9474d954dff9b24f7f7f5-0-0" class="displacy-label" startOffset="50%" side="left" fill="currentColor" text-anchor="middle">APP<tspan dy="2" font-size=".8em">s</tspan></textPath>
    </text>
    <path class="displacy-arrowhead" d="M211.0,154.0 L215.0,146.0 207.0,146.0" fill="currentColor"/>
</g>

<g class="displacy-arrow">
    <path class="displacy-arc" id="arrow-8cefd8bf80e9474d954dff9b24f7f7f5-0-1" stroke-width="2px" d="M82,152.0 82,102.0 364.0,102.0 364.0,152.0" fill="none" stroke="currentColor"/>
    <text dy="1.25em" style="font-size: 0.8em; letter-spacing: 1px">
        <textPath xlink:href="#arrow-8cefd8bf80e9474d954dff9b24f7f7f5-0-1" class="displacy-label" startOffset="50%" side="left" fill="currentColor" text-anchor="middle">APP<tspan dy="2" font-size=".8em">o</tspan></textPath>
    </text>
    <path class="displacy-arrowhead" d="M364.0,154.0 L368.0,146.0 360.0,146.0" fill="currentColor"/>
</g>

<g class="displacy-arrow">
    <path class="displacy-arc" id="arrow-8cefd8bf80e9474d954dff9b24f7f7f5-0-2" stroke-width="2px" d="M382,152.0 382,102.0 664.0,102.0 664.0,152.0" fill="none" stroke="currentColor"/>
    <text dy="1.25em" style="font-size: 0.8em; letter-spacing: 1px">
        <textPath xlink:href="#arrow-8cefd8bf80e9474d954dff9b24f7f7f5-0-2" class="displacy-label" startOffset="50%" side="left" fill="currentColor" text-anchor="middle">MOD<tspan dy="2" font-size=".8em">mod</tspan></textPath>
    </text>
    <path class="displacy-arrowhead" d="M664.0,154.0 L668.0,146.0 660.0,146.0" fill="currentColor"/>
</g>

<g class="displacy-arrow">
    <path class="displacy-arc" id="arrow-8cefd8bf80e9474d954dff9b24f7f7f5-0-3" stroke-width="2px" d="M382,152.0 382,52.0 970.0,52.0 970.0,152.0" fill="none" stroke="currentColor"/>
    <text dy="1.25em" style="font-size: 0.8em; letter-spacing: 1px">
        <textPath xlink:href="#arrow-8cefd8bf80e9474d954dff9b24f7f7f5-0-3" class="displacy-label" startOffset="50%" side="left" fill="currentColor" text-anchor="middle">APP<tspan dy="2" font-size=".8em">s</tspan></textPath>
    </text>
    <path class="displacy-arrowhead" d="M970.0,154.0 L974.0,146.0 966.0,146.0" fill="currentColor"/>
</g>

<g class="displacy-arrow">
    <path class="displacy-arc" id="arrow-8cefd8bf80e9474d954dff9b24f7f7f5-0-4" stroke-width="2px" d="M982,152.0 982,102.0 1264.0,102.0 1264.0,152.0" fill="none" stroke="currentColor"/>
    <text dy="1.25em" style="font-size: 0.8em; letter-spacing: 1px">
        <textPath xlink:href="#arrow-8cefd8bf80e9474d954dff9b24f7f7f5-0-4" class="displacy-label" startOffset="50%" side="left" fill="currentColor" text-anchor="middle">MOD<tspan dy="2" font-size=".8em">s</tspan></textPath>
    </text>
    <path class="displacy-arrowhead" d="M1264.0,154.0 L1268.0,146.0 1260.0,146.0" fill="currentColor"/>
</g>

<g class="displacy-arrow">
    <path class="displacy-arc" id="arrow-8cefd8bf80e9474d954dff9b24f7f7f5-0-5" stroke-width="2px" d="M982,152.0 982,77.0 1417.0,77.0 1417.0,152.0" fill="none" stroke="currentColor"/>
    <text dy="1.25em" style="font-size: 0.8em; letter-spacing: 1px">
        <textPath xlink:href="#arrow-8cefd8bf80e9474d954dff9b24f7f7f5-0-5" class="displacy-label" startOffset="50%" side="left" fill="currentColor" text-anchor="middle">MOD<tspan dy="2" font-size=".8em">s</tspan></textPath>
    </text>
    <path class="displacy-arrowhead" d="M1417.0,154.0 L1421.0,146.0 1413.0,146.0" fill="currentColor"/>
</g>

<g class="displacy-arrow">
    <path class="displacy-arc" id="arrow-8cefd8bf80e9474d954dff9b24f7f7f5-0-6" stroke-width="2px" d="M1432,152.0 1432,102.0 1714.0,102.0 1714.0,152.0" fill="none" stroke="currentColor"/>
    <text dy="1.25em" style="font-size: 0.8em; letter-spacing: 1px">
        <textPath xlink:href="#arrow-8cefd8bf80e9474d954dff9b24f7f7f5-0-6" class="displacy-label" startOffset="50%" side="left" fill="currentColor" text-anchor="middle">MOD<tspan dy="2" font-size=".8em">mod</tspan></textPath>
    </text>
    <path class="displacy-arrowhead" d="M1714.0,154.0 L1718.0,146.0 1710.0,146.0" fill="currentColor"/>
</g>
<text class="displacy-root" fill="currentColor" text-anchor="middle" x="70" y="27.0">
            root
        </text>
<g class="displacy-arrow">
            <path class="displacy-arc" id="arrow-root-8cefd8bf80e9474d954dff9b24f7f7f5-0" stroke-width="2px" d="M70,32.0 L70,152.0" fill="none" stroke="currentColor"/>
        </g>
</svg>
