<?xml version="1.0" encoding="UTF-8" standalone="no"?>
<!DOCTYPE svg PUBLIC "-//W3C//DTD SVG 1.1//EN"
 "http://www.w3.org/Graphics/SVG/1.1/DTD/svg11.dtd">
<!-- Generated by graphviz version 2.38.0 (20140413.2041)
 -->
<!-- Title: 0 Pages: 1 -->
<svg width="480pt" height="446pt"
 viewBox="0.00 0.00 479.97 446.13" xmlns="http://www.w3.org/2000/svg" xmlns:xlink="http://www.w3.org/1999/xlink">
<g id="graph0" class="graph" transform="scale(1 1) rotate(0) translate(4 442.132)">
<title>0</title>
<polygon fill="white" stroke="none" points="-4,4 -4,-442.132 475.974,-442.132 475.974,4 -4,4"/>
<!-- top -->
<!-- 0 -->
<g id="node2" class="node"><title>0</title>
<ellipse fill="none" stroke="black" cx="104.698" cy="-331.191" rx="83.3772" ry="33.8824"/>
<text text-anchor="start" x="81.1985" y="-337.991" font-family="Times,serif" font-size="14.00">show&#45;01</text>
<polyline fill="none" stroke="black" points="53.6985,-332.191 53.6985,-311.191 "/>
<text text-anchor="start" x="56.6985" y="-317.991" font-family="Times,serif" font-size="14.00">mode</text>
<polyline fill="none" stroke="black" points="155.698,-311.191 155.698,-332.191 "/>
<text text-anchor="start" x="93.6985" y="-317.991" font-family="Times,serif" font-size="14.00">imperative</text>
</g>
<!-- top&#45;&gt;0 -->
<g id="edge1" class="edge"><title>top&#45;&gt;0</title>
<path fill="none" stroke="black" d="M104.698,-401.955C104.698,-394.251 104.698,-384.781 104.698,-375.332"/>
<polygon fill="black" stroke="black" points="108.199,-375.172 104.698,-365.172 101.199,-375.172 108.199,-375.172"/>
</g>
<!-- 10 -->
<g id="node3" class="node"><title>10</title>
<ellipse fill="none" stroke="black" cx="29.6985" cy="-227.158" rx="29.8983" ry="19.1842"/>
<text text-anchor="start" x="19.1985" y="-222.958" font-family="Times,serif" font-size="14.00">you</text>
</g>
<!-- 0&#45;&gt;10 -->
<g id="edge2" class="edge"><title>0&#45;&gt;10</title>
<path fill="none" stroke="black" d="M79.4107,-298.643C74.4567,-292.279 69.3557,-285.595 64.6985,-279.25 58.5605,-270.887 52.0776,-261.57 46.3816,-253.207"/>
<polygon fill="black" stroke="black" points="49.2777,-251.241 40.7781,-244.916 43.4781,-255.161 49.2777,-251.241"/>
<text text-anchor="middle" x="82.6985" y="-268.05" font-family="Times,serif" font-size="14.00">ARG0</text>
</g>
<!-- 9 -->
<g id="node4" class="node"><title>9</title>
<ellipse fill="none" stroke="black" cx="104.698" cy="-227.158" rx="27" ry="19.1842"/>
<text text-anchor="start" x="102.698" y="-222.958" font-family="Times,serif" font-size="14.00">i</text>
</g>
<!-- 0&#45;&gt;9 -->
<g id="edge3" class="edge"><title>0&#45;&gt;9</title>
<path fill="none" stroke="black" d="M104.698,-297.064C104.698,-284.012 104.698,-269.172 104.698,-256.615"/>
<polygon fill="black" stroke="black" points="108.199,-256.27 104.698,-246.27 101.199,-256.27 108.199,-256.27"/>
<text text-anchor="middle" x="122.698" y="-268.05" font-family="Times,serif" font-size="14.00">ARG2</text>
</g>
<!-- 1 -->
<g id="node5" class="node"><title>1</title>
<ellipse fill="none" stroke="black" cx="187.698" cy="-227.158" rx="38.3684" ry="19.1842"/>
<text text-anchor="start" x="170.698" y="-222.958" font-family="Times,serif" font-size="14.00">fly&#45;01</text>
</g>
<!-- 0&#45;&gt;1 -->
<g id="edge4" class="edge"><title>0&#45;&gt;1</title>
<path fill="none" stroke="black" d="M130.278,-298.745C142.191,-284.101 156.166,-266.921 167.346,-253.177"/>
<polygon fill="black" stroke="black" points="170.308,-255.083 173.903,-245.117 164.878,-250.665 170.308,-255.083"/>
<text text-anchor="middle" x="176.698" y="-268.05" font-family="Times,serif" font-size="14.00">ARG1</text>
</g>
<!-- 7 -->
<g id="node6" class="node"><title>7</title>
<ellipse fill="none" stroke="black" cx="178.698" cy="-137.974" rx="29.8983" ry="19.1842"/>
<text text-anchor="start" x="168.198" y="-133.774" font-family="Times,serif" font-size="14.00">city</text>
</g>
<!-- 1&#45;&gt;7 -->
<g id="edge5" class="edge"><title>1&#45;&gt;7</title>
<path fill="none" stroke="black" d="M182.917,-207.918C181.629,-202.239 180.399,-195.929 179.698,-190.066 178.836,-182.845 178.424,-175.01 178.261,-167.695"/>
<polygon fill="black" stroke="black" points="181.759,-167.453 178.179,-157.481 174.76,-167.509 181.759,-167.453"/>
<text text-anchor="middle" x="197.698" y="-178.866" font-family="Times,serif" font-size="14.00">source</text>
</g>
<!-- 2 -->
<g id="node7" class="node"><title>2</title>
<ellipse fill="none" stroke="black" cx="296.698" cy="-137.974" rx="52.1524" ry="19.1842"/>
<text text-anchor="start" x="270.198" y="-133.774" font-family="Times,serif" font-size="14.00">anywhere</text>
</g>
<!-- 1&#45;&gt;2 -->
<g id="edge6" class="edge"><title>1&#45;&gt;2</title>
<path fill="none" stroke="black" d="M207.186,-210.571C224.117,-197.029 248.867,-177.232 268.053,-161.886"/>
<polygon fill="black" stroke="black" points="270.273,-164.593 275.896,-155.613 265.9,-159.126 270.273,-164.593"/>
<text text-anchor="middle" x="267.698" y="-178.866" font-family="Times,serif" font-size="14.00">ARG3</text>
</g>
<!-- 8 -->
<g id="node12" class="node"><title>8</title>
<ellipse fill="none" stroke="black" cx="178.698" cy="-33.9411" rx="60.623" ry="33.8824"/>
<text text-anchor="start" x="163.198" y="-40.7411" font-family="Times,serif" font-size="14.00">name</text>
<polyline fill="none" stroke="black" points="143.698,-34.9411 143.698,-13.9411 "/>
<text text-anchor="start" x="146.698" y="-20.7411" font-family="Times,serif" font-size="14.00">op1</text>
<polyline fill="none" stroke="black" points="213.698,-13.9411 213.698,-34.9411 "/>
<text text-anchor="start" x="173.698" y="-20.7411" font-family="Times,serif" font-size="14.00">boston</text>
</g>
<!-- 7&#45;&gt;8 -->
<g id="edge11" class="edge"><title>7&#45;&gt;8</title>
<path fill="none" stroke="black" d="M178.698,-118.733C178.698,-107.478 178.698,-92.533 178.698,-78.3831"/>
<polygon fill="black" stroke="black" points="182.199,-78.2843 178.698,-68.2844 175.199,-78.2844 182.199,-78.2843"/>
<text text-anchor="middle" x="194.198" y="-89.6823" font-family="Times,serif" font-size="14.00">name</text>
</g>
<!-- 3 -->
<g id="node8" class="node"><title>3</title>
<ellipse fill="none" stroke="black" cx="296.698" cy="-227.158" rx="45.011" ry="19.1842"/>
<text text-anchor="start" x="274.698" y="-222.958" font-family="Times,serif" font-size="14.00">have&#45;03</text>
</g>
<!-- 3&#45;&gt;2 -->
<g id="edge7" class="edge"><title>3&#45;&gt;2</title>
<path fill="none" stroke="black" d="M296.698,-207.668C296.698,-195.915 296.698,-180.468 296.698,-167.2"/>
<polygon fill="black" stroke="black" points="300.199,-167.138 296.698,-157.138 293.199,-167.138 300.199,-167.138"/>
<text text-anchor="middle" x="314.698" y="-178.866" font-family="Times,serif" font-size="14.00">ARG1</text>
</g>
<!-- 4 -->
<g id="node9" class="node"><title>4</title>
<ellipse fill="none" stroke="black" cx="405.698" cy="-227.158" rx="38.3684" ry="19.1842"/>
<text text-anchor="start" x="388.698" y="-222.958" font-family="Times,serif" font-size="14.00">fly&#45;01</text>
</g>
<!-- 4&#45;&gt;2 -->
<g id="edge9" class="edge"><title>4&#45;&gt;2</title>
<path fill="none" stroke="black" d="M386.211,-210.571C369.28,-197.029 344.53,-177.232 325.344,-161.886"/>
<polygon fill="black" stroke="black" points="327.497,-159.126 317.501,-155.613 323.124,-164.593 327.497,-159.126"/>
<text text-anchor="middle" x="376.698" y="-178.866" font-family="Times,serif" font-size="14.00">ARG1</text>
</g>
<!-- 5 -->
<g id="node10" class="node"><title>5</title>
<ellipse fill="none" stroke="black" cx="414.698" cy="-137.974" rx="29.8983" ry="19.1842"/>
<text text-anchor="start" x="404.198" y="-133.774" font-family="Times,serif" font-size="14.00">city</text>
</g>
<!-- 4&#45;&gt;5 -->
<g id="edge8" class="edge"><title>4&#45;&gt;5</title>
<path fill="none" stroke="black" d="M407.607,-207.668C408.82,-195.915 410.415,-180.468 411.785,-167.2"/>
<polygon fill="black" stroke="black" points="415.278,-167.445 412.823,-157.138 408.315,-166.726 415.278,-167.445"/>
<text text-anchor="middle" x="428.698" y="-178.866" font-family="Times,serif" font-size="14.00">source</text>
</g>
<!-- 6 -->
<g id="node11" class="node"><title>6</title>
<ellipse fill="none" stroke="black" cx="414.698" cy="-33.9411" rx="57.0522" ry="33.8824"/>
<text text-anchor="start" x="399.698" y="-40.7411" font-family="Times,serif" font-size="14.00">name</text>
<polyline fill="none" stroke="black" points="382.698,-34.9411 382.698,-13.9411 "/>
<text text-anchor="start" x="385.698" y="-20.7411" font-family="Times,serif" font-size="14.00">op1</text>
<polyline fill="none" stroke="black" points="447.698,-13.9411 447.698,-34.9411 "/>
<text text-anchor="start" x="412.698" y="-20.7411" font-family="Times,serif" font-size="14.00">dallas</text>
</g>
<!-- 5&#45;&gt;6 -->
<g id="edge10" class="edge"><title>5&#45;&gt;6</title>
<path fill="none" stroke="black" d="M414.698,-118.733C414.698,-107.478 414.698,-92.533 414.698,-78.3831"/>
<polygon fill="black" stroke="black" points="418.199,-78.2843 414.698,-68.2844 411.199,-78.2844 418.199,-78.2843"/>
<text text-anchor="middle" x="430.198" y="-89.6823" font-family="Times,serif" font-size="14.00">name</text>
</g>
</g>
</svg>
